<svg xmlns="http://www.w3.org/2000/svg" xmlns:xlink="http://www.w3.org/1999/xlink" version="1.1" data-diagram-type="SEQUENCE" style="width:1558px;height:1226px;background:#FFFFFF;" width="1558.333px" height="1226.042px" viewBox="0 0 1558 1226" zoomAndPan="magnify" preserveAspectRatio="none" contentStyleType="text/css"><?plantuml 1.2026.8?><defs/><g font-family="sans-serif" lengthAdjust="spacing"><g class="title" data-source-line="10"><text x="568.575" y="32.234" fill="#000" font-size="16.042" textLength="419.002" font-weight="700" font-family="Arial">AgroWatch — вариант Б: Kafka и два канала тревоги</text></g><rect x="74.853" y="237.292" width="1449.452" height="823.186" fill="none" style="stroke:#000;stroke-width:1.719;"/><rect x="309.76" y="305.924" width="1185.899" height="634.819" fill="none" style="stroke:#000;stroke-width:1.719;"/><rect x="875.12" y="545.736" width="523.38" height="223.829" fill="none" style="stroke:#000;stroke-width:1.719;"/><g><title>..............</title><rect x="89.176" y="108.047" width="9.167" height="1105.619" fill="#000" fill-opacity="0"/><line x1="93.186" y1="108.047" x2="93.186" y2="1213.666" style="stroke:#181818;stroke-width:0.573;stroke-dasharray:5.729,5.729;"/></g><g><title>......... Kafka</title><rect x="324.083" y="108.047" width="9.167" height="1105.619" fill="#000" fill-opacity="0"/><line x1="328.093" y1="108.047" x2="328.093" y2="1213.666" style="stroke:#181818;stroke-width:0.573;stroke-dasharray:5.729,5.729;"/></g><g><title>..........</title><rect x="562.277" y="108.047" width="9.167" height="1105.619" fill="#000" fill-opacity="0"/><line x1="566.288" y1="108.047" x2="566.288" y2="1213.666" style="stroke:#181818;stroke-width:0.573;stroke-dasharray:5.729,5.729;"/></g><g><title>........</title><rect x="776.361" y="108.047" width="9.167" height="1105.619" fill="#000" fill-opacity="0"/><line x1="780.371" y1="108.047" x2="780.371" y2="1213.666" style="stroke:#181818;stroke-width:0.573;stroke-dasharray:5.729,5.729;"/></g><g><title>..........</title><rect x="889.442" y="108.047" width="9.167" height="1105.619" fill="#000" fill-opacity="0"/><line x1="893.453" y1="108.047" x2="893.453" y2="1213.666" style="stroke:#181818;stroke-width:0.573;stroke-dasharray:5.729,5.729;"/></g><g><title>......</title><rect x="1100.679" y="108.047" width="9.167" height="1105.619" fill="#000" fill-opacity="0"/><line x1="1104.69" y1="108.047" x2="1104.69" y2="1213.666" style="stroke:#181818;stroke-width:0.573;stroke-dasharray:5.729,5.729;"/></g><g><title>......... . ..</title><rect x="1473.315" y="108.047" width="9.167" height="1105.619" fill="#000" fill-opacity="0"/><line x1="1477.325" y1="108.047" x2="1477.325" y2="1213.666" style="stroke:#181818;stroke-width:0.573;stroke-dasharray:5.729,5.729;"/></g><rect x="11.458" y="53.967" width="163.456" height="52.934" fill="#E2E2F0" style="stroke:#181818;stroke-width:0.573;" rx="2.865" ry="2.865"/><text x="31.119" y="77.035" fill="#000" font-size="16.042" textLength="124.135" font-family="Arial">Видеоаналитика</text><text x="19.479" y="95.481" fill="#000" font-size="16.042" textLength="147.414" font-family="Arial">и локальный буфер</text><rect x="257.547" y="72.414" width="141.093" height="34.488" fill="#E2E2F0" style="stroke:#181818;stroke-width:0.573;" rx="2.865" ry="2.865"/><text x="265.568" y="95.481" fill="#000" font-size="16.042" textLength="125.051" font-family="Arial">Локальная Kafka</text><rect x="502.967" y="53.967" width="126.641" height="52.934" fill="#E2E2F0" style="stroke:#181818;stroke-width:0.573;" rx="2.865" ry="2.865"/><text x="518.092" y="77.035" fill="#000" font-size="16.042" textLength="96.391" font-family="Arial">Оповещение</text><text x="510.988" y="95.481" fill="#000" font-size="16.042" textLength="110.6" font-family="Arial">группа terminal</text><rect x="734.964" y="72.414" width="90.814" height="34.488" fill="#E2E2F0" style="stroke:#181818;stroke-width:0.573;" rx="2.865" ry="2.865"/><text x="742.985" y="95.481" fill="#000" font-size="16.042" textLength="74.772" font-family="Arial">Терминал</text><rect x="837.237" y="53.967" width="112.433" height="52.934" fill="#E2E2F0" style="stroke:#181818;stroke-width:0.573;" rx="2.865" ry="2.865"/><text x="845.257" y="77.035" fill="#000" font-size="16.042" textLength="96.391" font-family="Arial">Оповещение</text><text x="849.295" y="95.481" fill="#000" font-size="16.042" textLength="88.315" font-family="Arial">группа siren</text><rect x="1068.584" y="72.414" width="72.211" height="34.488" fill="#E2E2F0" style="stroke:#181818;stroke-width:0.573;" rx="2.865" ry="2.865"/><text x="1076.605" y="95.481" fill="#000" font-size="16.042" textLength="56.169" font-family="Arial">Сирена</text><rect x="1408.812" y="72.414" width="137.028" height="34.488" fill="#E2E2F0" style="stroke:#181818;stroke-width:0.573;" rx="2.865" ry="2.865"/><text x="1416.832" y="95.481" fill="#000" font-size="16.042" textLength="120.986" font-family="Arial">Инциденты / ИИ</text><line x1="93.186" y1="175.475" x2="141.311" y2="175.475" style="stroke:#555;stroke-width:1.146;"/><line x1="141.311" y1="175.475" x2="141.311" y2="190.371" style="stroke:#555;stroke-width:1.146;"/><line x1="94.332" y1="190.371" x2="141.311" y2="190.371" style="stroke:#555;stroke-width:1.146;"/><polygon points="105.79,185.788,94.332,190.371,105.79,194.954,101.207,190.371" fill="#555" style="stroke:#555;stroke-width:1.146;stroke-linejoin:miter;stroke-miterlimit:10;"/><text x="101.207" y="135.77" fill="#000" font-size="14.896" textLength="33.937" font-family="Arial">Кадр</text><text x="135.145" y="135.77" fill="#000" font-size="14.896" font-family="Arial"> </text><text x="139.283" y="135.77" fill="#000" font-size="14.896" textLength="71.184" font-family="Arial">опасности</text><text x="210.467" y="135.77" fill="#000" font-size="14.896" font-family="Arial"> </text><text x="214.606" y="135.77" fill="#000" font-size="14.896" font-family="Arial">→</text><text x="101.207" y="152.898" fill="#000" font-size="14.896" textLength="104.736" font-family="Arial">распознавание</text><text x="101.207" y="170.027" fill="#000" font-size="14.896" font-family="Arial">→</text><text x="116.103" y="170.027" fill="#000" font-size="14.896" font-family="Arial"> </text><text x="120.241" y="170.027" fill="#000" font-size="14.896" textLength="96.888" font-family="Arial">observation_id</text><text x="217.13" y="170.027" fill="#000" font-size="14.896" font-family="Arial"> </text><text x="221.268" y="170.027" fill="#000" font-size="14.896" font-family="Arial">и</text><text x="229.589" y="170.027" fill="#000" font-size="14.896" font-family="Arial"> </text><text x="233.728" y="170.027" fill="#000" font-size="14.896" textLength="44.804" font-family="Arial">буфер</text><polygon points="314.343,218.958,325.802,223.542,314.343,228.125,318.927,223.542" fill="#555" style="stroke:#555;stroke-width:1.146;stroke-linejoin:miter;stroke-miterlimit:10;"/><line x1="93.186" y1="223.542" x2="321.218" y2="223.542" style="stroke:#555;stroke-width:1.146;"/><text x="101.207" y="218.093" fill="#000" font-size="14.896" textLength="149.038" font-family="Arial">ObservationRecorded,</text><text x="250.245" y="218.093" fill="#000" font-size="14.896" font-family="Arial"> </text><text x="254.384" y="218.093" fill="#000" font-size="14.896" textLength="54.23" font-family="Arial">acks=all</text><path d="M74.853,237.292 L143.799,237.292 L143.799,245.254 L132.34,256.712 L74.853,256.712 L74.853,237.292" style="stroke:#000;stroke-width:1.719;" fill="#EEE"/><rect x="74.853" y="237.292" width="1449.452" height="823.186" fill="none" style="stroke:#000;stroke-width:1.719;"/><text x="92.04" y="252.41" fill="#000" font-size="14.896" textLength="17.383" font-weight="700" font-family="Arial">alt</text><text x="160.986" y="251.406" fill="#000" font-size="12.604" textLength="161.103" font-weight="700" font-family="Arial">[Kafka доступна, ISR >= 2]</text><polygon points="105.79,287.591,94.332,292.174,105.79,296.757,101.207,292.174" fill="#555" style="stroke:#555;stroke-width:1.146;stroke-linejoin:miter;stroke-miterlimit:10;"/><line x1="98.915" y1="292.174" x2="326.947" y2="292.174" style="stroke:#555;stroke-width:1.146;stroke-dasharray:2.292,2.292;"/><text x="112.665" y="286.726" fill="#000" font-size="14.896" textLength="30.628" font-family="Arial">ACK</text><text x="143.294" y="286.726" fill="#000" font-size="14.896" font-family="Arial"> </text><text x="147.432" y="286.726" fill="#000" font-size="14.896" textLength="47.27" font-family="Arial">записи</text><text x="194.702" y="286.726" fill="#000" font-size="14.896" font-family="Arial"> </text><text x="198.84" y="286.726" fill="#000" font-size="14.896" textLength="21.471" font-family="Arial">(не</text><text x="220.311" y="286.726" fill="#000" font-size="14.896" font-family="Arial"> </text><text x="224.45" y="286.726" fill="#000" font-size="14.896" textLength="67.242" font-family="Arial">доставки)</text><path d="M309.76,305.924 L384.503,305.924 L384.503,313.886 L373.044,325.344 L309.76,325.344 L309.76,305.924" style="stroke:#000;stroke-width:1.719;" fill="#EEE"/><rect x="309.76" y="305.924" width="1185.899" height="634.819" fill="none" style="stroke:#000;stroke-width:1.719;"/><text x="326.947" y="321.042" fill="#000" font-size="14.896" textLength="23.18" font-weight="700" font-family="Arial">par</text><text x="401.69" y="320.038" fill="#000" font-size="12.604" textLength="116.822" font-weight="700" font-family="Arial">[Канал терминала]</text><polygon points="552.538,356.223,563.996,360.807,552.538,365.39,557.121,360.807" fill="#555" style="stroke:#555;stroke-width:1.146;stroke-linejoin:miter;stroke-miterlimit:10;"/><line x1="328.093" y1="360.807" x2="559.413" y2="360.807" style="stroke:#555;stroke-width:1.146;"/><text x="336.114" y="355.358" fill="#000" font-size="14.896" textLength="51.757" font-family="Arial">Первое</text><text x="387.871" y="355.358" fill="#000" font-size="14.896" font-family="Arial"> </text><text x="392.01" y="355.358" fill="#000" font-size="14.896" textLength="86.713" font-family="Arial">наблюдение</text><polygon points="766.621,389.394,778.08,393.977,766.621,398.56,771.205,393.977" fill="#555" style="stroke:#555;stroke-width:1.146;stroke-linejoin:miter;stroke-miterlimit:10;"/><line x1="566.288" y1="393.977" x2="773.496" y2="393.977" style="stroke:#555;stroke-width:1.146;"/><text x="574.309" y="388.529" fill="#000" font-size="14.896" textLength="62.915" font-family="Arial">Карточка</text><text x="637.223" y="388.529" fill="#000" font-size="14.896" font-family="Arial"> </text><text x="641.362" y="388.529" fill="#000" font-size="14.896" textLength="34.047" font-family="Arial">зоны</text><text x="675.408" y="388.529" fill="#000" font-size="14.896" font-family="Arial"> </text><text x="679.547" y="388.529" fill="#000" font-size="14.896" font-family="Arial">/</text><text x="683.685" y="388.529" fill="#000" font-size="14.896" font-family="Arial"> </text><text x="687.824" y="388.529" fill="#000" font-size="14.896" textLength="73.068" font-family="Arial">подрепорт</text><polygon points="578.892,422.564,567.434,427.147,578.892,431.731,574.309,427.147" fill="#555" style="stroke:#555;stroke-width:1.146;stroke-linejoin:miter;stroke-miterlimit:10;"/><line x1="572.017" y1="427.147" x2="779.225" y2="427.147" style="stroke:#555;stroke-width:1.146;stroke-dasharray:2.292,2.292;"/><text x="585.767" y="421.699" fill="#000" font-size="14.896" textLength="30.628" font-family="Arial">ACK</text><text x="616.395" y="421.699" fill="#000" font-size="14.896" font-family="Arial"> </text><text x="620.534" y="421.699" fill="#000" font-size="14.896" textLength="80.4" font-family="Arial">получателя</text><polygon points="340.697,455.735,329.239,460.318,340.697,464.901,336.114,460.318" fill="#555" style="stroke:#555;stroke-width:1.146;stroke-linejoin:miter;stroke-miterlimit:10;"/><line x1="333.822" y1="460.318" x2="565.142" y2="460.318" style="stroke:#555;stroke-width:1.146;"/><text x="347.572" y="454.87" fill="#000" font-size="14.896" textLength="70.879" font-family="Arial">Результат</text><text x="418.451" y="454.87" fill="#000" font-size="14.896" font-family="Arial"> </text><text x="422.59" y="454.87" fill="#000" font-size="14.896" textLength="62.282" font-family="Arial">доставки</text><text x="484.872" y="454.87" fill="#000" font-size="14.896" font-family="Arial"> </text><text x="489.01" y="454.87" fill="#000" font-size="14.896" font-family="Arial">+</text><text x="497.709" y="454.87" fill="#000" font-size="14.896" font-family="Arial"> </text><text x="501.848" y="454.87" fill="#000" font-size="14.896" textLength="56.419" font-family="Arial">позиция</text><line x1="309.76" y1="470.63" x2="1495.659" y2="470.63" style="stroke:#000;stroke-width:1.146;stroke-dasharray:2.292,2.292;"/><text x="315.489" y="484.745" fill="#000" font-size="12.604" textLength="97.073" font-weight="700" font-family="Arial">[Канал сирены]</text><polygon points="879.703,527.402,891.161,531.986,879.703,536.569,884.286,531.986" fill="#555" style="stroke:#555;stroke-width:1.146;stroke-linejoin:miter;stroke-miterlimit:10;"/><line x1="328.093" y1="531.986" x2="886.578" y2="531.986" style="stroke:#555;stroke-width:1.146;"/><text x="336.114" y="509.409" fill="#000" font-size="14.896" textLength="17.383" font-family="Arial">То</text><text x="353.497" y="509.409" fill="#000" font-size="14.896" font-family="Arial"> </text><text x="357.636" y="509.409" fill="#000" font-size="14.896" textLength="18.249" font-family="Arial">же</text><text x="375.885" y="509.409" fill="#000" font-size="14.896" font-family="Arial"> </text><text x="380.023" y="509.409" fill="#000" font-size="14.896" textLength="90.851" font-family="Arial">наблюдение,</text><text x="470.875" y="509.409" fill="#000" font-size="14.896" font-family="Arial"> </text><text x="475.013" y="509.409" fill="#000" font-size="14.896" textLength="46.208" font-family="Arial">другая</text><text x="336.114" y="526.537" fill="#000" font-size="14.896" textLength="45.582" font-family="Arial">группа</text><path d="M875.12,545.736 L944.065,545.736 L944.065,553.698 L932.607,565.156 L875.12,565.156 L875.12,545.736" style="stroke:#000;stroke-width:1.719;" fill="#EEE"/><rect x="875.12" y="545.736" width="523.38" height="223.829" fill="none" style="stroke:#000;stroke-width:1.719;"/><text x="892.307" y="560.854" fill="#000" font-size="14.896" textLength="17.383" font-weight="700" font-family="Arial">alt</text><text x="961.253" y="559.85" fill="#000" font-size="12.604" textLength="240.482" font-weight="700" font-family="Arial">[Звук не подавлен за период простоя]</text><polygon points="1090.94,613.164,1102.398,617.747,1090.94,622.33,1095.523,617.747" fill="#555" style="stroke:#555;stroke-width:1.146;stroke-linejoin:miter;stroke-miterlimit:10;"/><line x1="893.453" y1="617.747" x2="1097.815" y2="617.747" style="stroke:#555;stroke-width:1.146;"/><text x="901.474" y="595.17" fill="#000" font-size="14.896" textLength="74.108" font-family="Arial">Желаемое</text><text x="975.582" y="595.17" fill="#000" font-size="14.896" font-family="Arial"> </text><text x="979.721" y="595.17" fill="#000" font-size="14.896" textLength="75.323" font-family="Arial">состояние,</text><text x="1055.043" y="595.17" fill="#000" font-size="14.896" font-family="Arial"> </text><text x="1059.182" y="595.17" fill="#000" font-size="14.896" textLength="19.034" font-family="Arial">ID,</text><text x="901.474" y="612.299" fill="#000" font-size="14.896" textLength="48.317" font-family="Arial">версия</text><path d="M1110.419,632.643 L1110.419,660.143 L1373.96,660.143 L1373.96,644.101 L1362.502,632.643 L1110.419,632.643" style="stroke:#181818;stroke-width:0.573;" fill="#FEFFDD"/><path d="M1362.502,632.643 L1362.502,644.101 L1373.96,644.101 L1362.502,632.643" style="stroke:#181818;stroke-width:0.573;" fill="#FEFFDD"/><text x="1117.294" y="652.344" fill="#000" font-size="14.896" textLength="239.955" font-family="Arial">Старая версия не отменяет новую</text><polygon points="906.057,686.379,894.599,690.963,906.057,695.546,901.474,690.963" fill="#555" style="stroke:#555;stroke-width:1.146;stroke-linejoin:miter;stroke-miterlimit:10;"/><line x1="899.182" y1="690.963" x2="1103.544" y2="690.963" style="stroke:#555;stroke-width:1.146;stroke-dasharray:2.292,2.292;"/><text x="912.932" y="685.514" fill="#000" font-size="14.896" textLength="30.628" font-family="Arial">ACK</text><text x="943.56" y="685.514" fill="#000" font-size="14.896" font-family="Arial"> </text><text x="947.699" y="685.514" fill="#000" font-size="14.896" textLength="80.4" font-family="Arial">получателя</text><line x1="875.12" y1="701.275" x2="1398.499" y2="701.275" style="stroke:#000;stroke-width:1.146;stroke-dasharray:2.292,2.292;"/><text x="880.849" y="715.389" fill="#000" font-size="12.604" textLength="156.327" font-weight="700" font-family="Arial">[Подавлен сотрудником]</text><line x1="893.453" y1="745.502" x2="941.578" y2="745.502" style="stroke:#555;stroke-width:1.146;"/><line x1="941.578" y1="745.502" x2="941.578" y2="760.397" style="stroke:#555;stroke-width:1.146;"/><line x1="894.599" y1="760.397" x2="941.578" y2="760.397" style="stroke:#555;stroke-width:1.146;"/><polygon points="906.057,755.814,894.599,760.397,906.057,764.981,901.474,760.397" fill="#555" style="stroke:#555;stroke-width:1.146;stroke-linejoin:miter;stroke-miterlimit:10;"/><text x="901.474" y="740.053" fill="#000" font-size="14.896" textLength="74.188" font-family="Arial">Сохранить</text><text x="975.662" y="740.053" fill="#000" font-size="14.896" font-family="Arial"> </text><text x="979.801" y="740.053" fill="#000" font-size="14.896" textLength="47.953" font-family="Arial">случай</text><text x="1027.754" y="740.053" fill="#000" font-size="14.896" font-family="Arial"> </text><text x="1031.892" y="740.053" fill="#000" font-size="14.896" textLength="23.646" font-family="Arial">без</text><text x="1055.538" y="740.053" fill="#000" font-size="14.896" font-family="Arial"> </text><text x="1059.677" y="740.053" fill="#000" font-size="14.896" textLength="36.992" font-family="Arial">звука</text><polygon points="340.697,822.155,329.239,826.738,340.697,831.322,336.114,826.738" fill="#555" style="stroke:#555;stroke-width:1.146;stroke-linejoin:miter;stroke-miterlimit:10;"/><line x1="333.822" y1="826.738" x2="892.307" y2="826.738" style="stroke:#555;stroke-width:1.146;"/><text x="347.572" y="804.161" fill="#000" font-size="14.896" textLength="70.879" font-family="Arial">Результат</text><text x="418.451" y="804.161" fill="#000" font-size="14.896" font-family="Arial"> </text><text x="422.59" y="804.161" fill="#000" font-size="14.896" textLength="71.861" font-family="Arial">обработки</text><text x="494.451" y="804.161" fill="#000" font-size="14.896" font-family="Arial"> </text><text x="498.589" y="804.161" fill="#000" font-size="14.896" font-family="Arial">+</text><text x="347.572" y="821.29" fill="#000" font-size="14.896" textLength="56.419" font-family="Arial">позиция</text><line x1="309.76" y1="837.051" x2="1495.659" y2="837.051" style="stroke:#000;stroke-width:1.146;stroke-dasharray:2.292,2.292;"/><text x="315.489" y="851.165" fill="#000" font-size="12.604" textLength="139.667" font-weight="700" font-family="Arial">[Доменная обработка]</text><polygon points="1463.575,876.694,1475.034,881.277,1463.575,885.861,1468.159,881.277" fill="#555" style="stroke:#555;stroke-width:1.146;stroke-linejoin:miter;stroke-miterlimit:10;"/><line x1="328.093" y1="881.277" x2="1470.45" y2="881.277" style="stroke:#555;stroke-width:1.146;"/><text x="336.114" y="875.829" fill="#000" font-size="14.896" textLength="89.244" font-family="Arial">Наблюдение</text><polygon points="340.697,926.993,329.239,931.576,340.697,936.16,336.114,931.576" fill="#555" style="stroke:#555;stroke-width:1.146;stroke-linejoin:miter;stroke-miterlimit:10;"/><line x1="333.822" y1="931.576" x2="1476.18" y2="931.576" style="stroke:#555;stroke-width:1.146;"/><text x="347.572" y="908.999" fill="#000" font-size="14.896" textLength="96.67" font-family="Arial">Канонический</text><text x="444.243" y="908.999" fill="#000" font-size="14.896" font-family="Arial"> </text><text x="448.381" y="908.999" fill="#000" font-size="14.896" textLength="69.562" font-family="Arial">инцидент;</text><text x="517.944" y="908.999" fill="#000" font-size="14.896" font-family="Arial"> </text><text x="522.082" y="908.999" fill="#000" font-size="14.896" textLength="41.429" font-family="Arial">позже</text><text x="347.572" y="926.128" fill="#000" font-size="14.896" textLength="100.016" font-family="Arial">рекомендация</text><line x1="74.853" y1="957.931" x2="1524.305" y2="957.931" style="stroke:#000;stroke-width:1.146;stroke-dasharray:2.292,2.292;"/><text x="80.582" y="972.045" fill="#000" font-size="12.604" textLength="114.379" font-weight="700" font-family="Arial">[Нет ACK / ISR &lt; 2]</text><line x1="93.186" y1="1036.415" x2="141.311" y2="1036.415" style="stroke:#555;stroke-width:1.146;"/><line x1="141.311" y1="1036.415" x2="141.311" y2="1051.31" style="stroke:#555;stroke-width:1.146;"/><line x1="94.332" y1="1051.31" x2="141.311" y2="1051.31" style="stroke:#555;stroke-width:1.146;"/><polygon points="105.79,1046.727,94.332,1051.31,105.79,1055.894,101.207,1051.31" fill="#555" style="stroke:#555;stroke-width:1.146;stroke-linejoin:miter;stroke-miterlimit:10;"/><text x="101.207" y="996.709" fill="#000" font-size="14.896" textLength="58.805" font-family="Arial">Pending;</text><text x="160.012" y="996.709" fill="#000" font-size="14.896" font-family="Arial"> </text><text x="164.151" y="996.709" fill="#000" font-size="14.896" textLength="47.655" font-family="Arial">повтор</text><text x="211.806" y="996.709" fill="#000" font-size="14.896" font-family="Arial"> </text><text x="215.944" y="996.709" fill="#000" font-size="14.896" font-family="Arial">с</text><text x="223.392" y="996.709" fill="#000" font-size="14.896" font-family="Arial"> </text><text x="227.531" y="996.709" fill="#000" font-size="14.896" textLength="25.348" font-family="Arial">тем</text><text x="252.878" y="996.709" fill="#000" font-size="14.896" font-family="Arial"> </text><text x="257.017" y="996.709" fill="#000" font-size="14.896" textLength="18.249" font-family="Arial">же</text><text x="275.266" y="996.709" fill="#000" font-size="14.896" font-family="Arial"> </text><text x="279.404" y="996.709" fill="#000" font-size="14.896" textLength="14.896" font-family="Arial">ID</text><text x="101.207" y="1013.838" fill="#000" font-size="14.896" textLength="62.245" font-family="Arial">доставка</text><text x="163.452" y="1013.838" fill="#000" font-size="14.896" font-family="Arial"> </text><text x="167.591" y="1013.838" fill="#000" font-size="14.896" textLength="75.134" font-family="Arial">задержана</text><text x="242.725" y="1013.838" fill="#000" font-size="14.896" font-family="Arial"> </text><text x="246.863" y="1013.838" fill="#000" font-size="14.896" textLength="25.333" font-family="Arial">или</text><text x="272.196" y="1013.838" fill="#000" font-size="14.896" font-family="Arial"> </text><text x="276.335" y="1013.838" fill="#000" font-size="14.896" textLength="40.193" font-family="Arial">исход</text><text x="101.207" y="1030.966" fill="#000" font-size="14.896" textLength="78.64" font-family="Arial">неизвестен</text><path d="M39.999,1082.248 L39.999,1195.685 L1157.186,1195.685 L1157.186,1093.706 L1145.728,1082.248 L39.999,1082.248" style="stroke:#181818;stroke-width:0.573;" fill="#FEFFDD"/><path d="M1145.728,1082.248 L1145.728,1093.706 L1157.186,1093.706 L1145.728,1082.248" style="stroke:#181818;stroke-width:0.573;" fill="#FEFFDD"/><text x="302.244" y="1101.949" fill="#000" font-size="14.896" textLength="475.052" font-family="Arial">Окно 60 с и второй распознаватель не задерживают первый сигнал.</text><text x="302.244" y="1119.078" fill="#000" font-size="14.896" textLength="456.17" font-family="Arial">P01 ≤ 5 с включает Kafka, выбор лидера, rebalance и получателя.</text><text x="302.244" y="1136.207" fill="#000" font-size="14.896" textLength="566.151" font-family="Arial">Результат/позиция фиксируются после ACK; сбой между ними допускает повтор.</text><text x="302.244" y="1153.336" fill="#000" font-size="14.896" textLength="583.076" font-family="Arial">Повторы ограничены сроком и числом попыток; новая версия выключения главнее.</text><text x="302.244" y="1170.464" fill="#000" font-size="14.896" textLength="563.205" font-family="Arial">Звук включён по умолчанию; явное подавление — только за выбранный период.</text><text x="302.244" y="1187.593" fill="#000" font-size="14.896" textLength="402.26" font-family="Arial">Историческая пересборка состояния не включает сирену.</text><?plantuml-src bLRHJXjN47tVhnYbBwtgW5sLD0qD4WH5Gb7RA7deIwNgObzWPNiNxMwSf4-sQO8Y42XHrA9MAINg1nXZWsCRymjtVu4lwPcvwsKn95AHaBntviwSENDcTiEowwshG5Mff5VKaqfqt_UY7rHLqtpWgeeJNjZNNIeKyfcJS4sL_AUkjqehgXBgZALOKM6ue8hbrS1_ufNk-HK_eCzkpomitCzVSVE3aWuIbqBXrks5nOpBV13uJnFZZFnbZ9vVqg5Ufw-pXu7oodpuJTvPSqkQT7KzUavLNLtMGUX4RbH1RS3raugAQtHUVqkcRLfntVHCovp6JJAlxz03jL9MP7faEcmbqsSZ_WTuY9lmxk9yP8vCpsPPyVresN-MmL5LpxxNOQXMzMFtLqs5R_CE395RTDUL5z4DymOPEuWpIaFtuYREaEfdZrCFOEAyWtWRmBRC1pA7yKRyc-d6zHkaGgfDHFmhUm4rxTewnBSyuVktEODt6x5U0SCfydQHzIYknnkmdA7CI0TLrrCLkUv54_VVCmepn3t1BaxH_yuHke7sR89mul81wAZBjPOuJDhtmCdBX4AqBTwYQSBXdZYxJerkpb6Dxf3v4_WwSPq01IdZ1YAEuWPJJUSltn2Iy24ZFP5Qsj8FmSfsVpdKGKr5hk_zufP44saNR9OoilnuuVL85rdIfHnX0CAxgb9nL2KQIwfZami3o9QZfSUFQEukVUKWpiq4y_oz1mGqBVZqWAr7dyEtcruMa7tJ-y8XS68hb2v0cfVRObeESTmvD92vs1SpAnVHsECGOjcn77B9y8OZtAE4EVIgYQIRh2k6D68bCjFCLqSQX5_iXQkH522Pf0Bs6O2hJSG1CFpUJHCmQUOV79w02WYMg-BXcoYHlgIaDJtkDWVGs3MNQcwCbH9lfTM67Fwz6P4v_aYfEMByI7uaavAL9Q9mnymVfesZFbdofMB1DU0OqY0-xShkW0qF-6dXZwHKnW4q0kPt9W3Nk-WEqm_OgUiOqT9YZcHUwbAK3U57cW9tTIqYVyM6EX2owXPtnZq1Ee9vA7pimjRaqn5N4kzmlD0sAVnqaop9-nCb2-Qc4DKHp7qu32yAjRGVmEa5msCNk6_plII5B37kEjCdx0hTsYivuo0VKyO8SrUNFdA1dzB6MqObVRPRyChLT2fSplNksZbmKonMQYEfPXECDZWv5zAxl89cnt1OSgB8VWe4BAOOKQl5-KxQmrsObZNm7M-1T74zX2DUhadKjYYb3YfboCtGAdjf4HlryioqxEheY32FxPWmrW6lBgoJ-8KLAxI2qnCHK4DYdZgCJGJdrtH0jLpeO8dtkNgwbUVS72E1WYWVhjsUYOos4pbcmVJ4liFjj8FJblSQonTpAFCyvJpC5-ZyrRyq8mcv9FH6nCDqoHxbCS7DGw64AqioO9y6UbbLb5VKWlKQTKyvLzKrVLb8XFKESTlDmeC35JTOIBph6ZmCtBLPndqeD4YNZx5GDaW4DBIV3dZZu7P3NifTMtJQIS3OltZ2KkNFYNHgDkq-GmOXMeJ41S7G4mJoV2OPjZY4wSycWtxDMc2knYoAmcNXoJfgYmwwG9DkkvJn-3MlEIGX68R2v6Q2RmV5xyhbqJMxaKT8Fgq46N-Ez7aLoyAKlYLr9byrcHqA77l9LgndngrboMUthYKTlrZgariqNOAJiicy9JQcMEUoMFy3?></g></svg>