<svg xmlns="http://www.w3.org/2000/svg" xmlns:xlink="http://www.w3.org/1999/xlink" version="1.1" data-diagram-type="CLASS" style="width:2708px;height:742px;background:#FFFFFF;" width="2708.75px" height="742.5px" viewBox="0 0 2708 742" zoomAndPan="magnify" preserveAspectRatio="none" contentStyleType="text/css"><?plantuml 1.2026.8?><defs/><g font-family="sans-serif" lengthAdjust="spacing"><g class="title" data-source-line="10"><text x="1141.095" y="26.505" fill="#000" font-size="16.042" textLength="419.488" font-weight="700" font-family="Arial">AgroTech X — C4, Издатель наблюдений / вариант Б</text></g><!--class Observation--><g class="entity" data-qualified-name="Observation" id="ent0001" data-source-line="13"><rect x="8.021" y="222.405" width="315.142" height="257.792" fill="#85BBF0" style="stroke:#1168BD;stroke-width:0.573;" rx="2.865" ry="2.865"/><ellipse cx="117.477" cy="245.263" rx="12.604" ry="12.604" fill="#ADD1B2" style="stroke:#181818;stroke-width:1.146;"/><path d="M120.311,252.302 Q119.645,252.644 118.913,252.815 Q118.18,252.986 117.372,252.986 Q114.499,252.986 112.987,251.094 Q111.475,249.201 111.475,245.625 Q111.475,242.039 112.987,240.146 Q114.499,238.253 117.372,238.253 Q118.18,238.253 118.922,238.425 Q119.664,238.596 120.311,238.938 L120.311,242.058 Q119.588,241.392 118.908,241.083 Q118.228,240.774 117.505,240.774 Q115.964,240.774 115.179,241.996 Q114.395,243.218 114.395,245.625 Q114.395,248.021 115.179,249.244 Q115.964,250.466 117.505,250.466 Q118.228,250.466 118.908,250.157 Q119.588,249.848 120.311,249.182 Z " fill="#000"/><text x="139.873" y="241.031" fill="#000" font-size="13.75" textLength="88.677" font-style="italic" font-family="Arial">«value object»</text><text x="140.967" y="258.992" fill="#000" font-size="16.042" textLength="86.49" font-family="Arial">Observation</text><line x1="9.167" y1="268.121" x2="322.017" y2="268.121" style="stroke:#1168BD;stroke-width:0.573;"/><g data-visibility-modifier="PUBLIC_FIELD"><ellipse cx="20.625" cy="283.646" rx="3.438" ry="3.438" fill="none" style="stroke:#038048;stroke-width:1.146;"/></g><text x="30.937" y="287.751" fill="#000" font-size="16.042" textLength="142.667" font-family="Arial">ObservationId: Guid</text><g data-visibility-modifier="PUBLIC_FIELD"><ellipse cx="20.625" cy="302.092" rx="3.438" ry="3.438" fill="none" style="stroke:#038048;stroke-width:1.146;"/></g><text x="30.937" y="306.197" fill="#000" font-size="16.042" textLength="111.461" font-family="Arial">TenantId: string</text><g data-visibility-modifier="PUBLIC_FIELD"><ellipse cx="20.625" cy="320.538" rx="3.438" ry="3.438" fill="none" style="stroke:#038048;stroke-width:1.146;"/></g><text x="30.937" y="324.643" fill="#000" font-size="16.042" textLength="98.944" font-family="Arial">FarmId: string</text><g data-visibility-modifier="PUBLIC_FIELD"><ellipse cx="20.625" cy="338.985" rx="3.438" ry="3.438" fill="none" style="stroke:#038048;stroke-width:1.146;"/></g><text x="30.937" y="343.09" fill="#000" font-size="16.042" textLength="139.096" font-family="Arial">SchemaVersion: int</text><g data-visibility-modifier="PUBLIC_FIELD"><ellipse cx="20.625" cy="357.431" rx="3.438" ry="3.438" fill="none" style="stroke:#038048;stroke-width:1.146;"/></g><text x="30.937" y="361.536" fill="#000" font-size="16.042" textLength="118.574" font-family="Arial">CameraId: string</text><g data-visibility-modifier="PUBLIC_FIELD"><ellipse cx="20.625" cy="375.878" rx="3.438" ry="3.438" fill="none" style="stroke:#038048;stroke-width:1.146;"/></g><text x="30.937" y="379.983" fill="#000" font-size="16.042" textLength="98.083" font-family="Arial">ZoneId: string</text><g data-visibility-modifier="PUBLIC_FIELD"><ellipse cx="20.625" cy="394.324" rx="3.438" ry="3.438" fill="none" style="stroke:#038048;stroke-width:1.146;"/></g><text x="30.937" y="398.429" fill="#000" font-size="16.042" textLength="202.362" font-family="Arial">OccurredAt: DateTimeOffset</text><g data-visibility-modifier="PUBLIC_FIELD"><ellipse cx="20.625" cy="412.77" rx="3.438" ry="3.438" fill="none" style="stroke:#038048;stroke-width:1.146;"/></g><text x="30.937" y="416.875" fill="#000" font-size="16.042" textLength="126.61" font-family="Arial">ProducerId: string</text><g data-visibility-modifier="PUBLIC_FIELD"><ellipse cx="20.625" cy="431.217" rx="3.438" ry="3.438" fill="none" style="stroke:#038048;stroke-width:1.146;"/></g><text x="30.937" y="435.322" fill="#000" font-size="16.042" textLength="146.224" font-family="Arial">ModelVersion: string</text><g data-visibility-modifier="PUBLIC_FIELD"><ellipse cx="20.625" cy="449.663" rx="3.438" ry="3.438" fill="none" style="stroke:#038048;stroke-width:1.146;"/></g><text x="30.937" y="453.768" fill="#000" font-size="16.042" textLength="124.809" font-family="Arial">Severity: Severity</text><g data-visibility-modifier="PUBLIC_FIELD"><ellipse cx="20.625" cy="468.109" rx="3.438" ry="3.438" fill="none" style="stroke:#038048;stroke-width:1.146;"/></g><text x="30.937" y="472.214" fill="#000" font-size="16.042" textLength="285.351" font-family="Arial">Evidence: IReadOnlyList&lt;EvidenceRef></text></g><!--class ObservationPublisher--><g class="entity" data-qualified-name="ObservationPublisher" id="ent0002" data-source-line="26"><rect x="843.265" y="50.53" width="374.86" height="73.329" fill="#85BBF0" style="stroke:#1168BD;stroke-width:0.573;" rx="2.865" ry="2.865"/><ellipse cx="949.141" cy="73.388" rx="12.604" ry="12.604" fill="#ADD1B2" style="stroke:#181818;stroke-width:1.146;"/><path d="M951.975,80.427 Q951.309,80.769 950.577,80.94 Q949.844,81.111 949.036,81.111 Q946.164,81.111 944.651,79.219 Q943.139,77.326 943.139,73.75 Q943.139,70.164 944.651,68.271 Q946.164,66.378 949.036,66.378 Q949.844,66.378 950.586,66.55 Q951.328,66.721 951.975,67.063 L951.975,70.183 Q951.252,69.517 950.572,69.208 Q949.892,68.899 949.169,68.899 Q947.628,68.899 946.844,70.121 Q946.059,71.343 946.059,73.75 Q946.059,76.146 946.844,77.369 Q947.628,78.591 949.169,78.591 Q949.892,78.591 950.572,78.282 Q951.252,77.973 951.975,77.307 Z " fill="#000"/><text x="1007.651" y="69.156" fill="#000" font-size="13.75" textLength="83.326" font-style="italic" font-family="Arial">«component»</text><text x="972.631" y="87.117" fill="#000" font-size="16.042" textLength="153.367" font-family="Arial">ObservationPublisher</text><line x1="844.41" y1="96.246" x2="1216.979" y2="96.246" style="stroke:#1168BD;stroke-width:0.573;"/><g data-visibility-modifier="PUBLIC_METHOD"><ellipse cx="855.869" cy="111.771" rx="3.438" ry="3.438" fill="#84BE84" style="stroke:#038048;stroke-width:1.146;"/></g><text x="866.181" y="115.876" fill="#000" font-size="16.042" textLength="345.068" font-family="Arial">PublishAsync(detection: Detection): Task&lt;Guid></text></g><!--class OutboxPort--><g class="entity" data-qualified-name="OutboxPort" id="ent0003" data-source-line="29"><rect x="1268.518" y="296.185" width="548.725" height="110.222" fill="#85BBF0" style="stroke:#1168BD;stroke-width:0.573;" rx="2.865" ry="2.865"/><ellipse cx="1494.819" cy="319.043" rx="12.604" ry="12.604" fill="#B4A7E5" style="stroke:#181818;stroke-width:1.146;"/><path d="M1490.726,314.763 L1490.726,312.29 L1499.182,312.29 L1499.182,314.763 L1496.357,314.763 L1496.357,324.018 L1499.182,324.018 L1499.182,326.491 L1490.726,326.491 L1490.726,324.018 L1493.551,324.018 L1493.551,314.763 Z " fill="#000"/><text x="1516.017" y="314.811" fill="#000" font-size="13.75" textLength="90.966" font-style="italic" font-family="Arial">«port to spool»</text><text x="1520.93" y="332.772" fill="#000" font-size="16.042" textLength="81.14" font-style="italic" font-family="Arial">OutboxPort</text><line x1="1269.664" y1="341.901" x2="1816.097" y2="341.901" style="stroke:#1168BD;stroke-width:0.573;"/><g data-visibility-modifier="PUBLIC_METHOD"><ellipse cx="1281.122" cy="357.426" rx="3.438" ry="3.438" fill="#84BE84" style="stroke:#038048;stroke-width:1.146;"/></g><text x="1291.434" y="361.531" fill="#000" font-size="16.042" textLength="331.69" font-family="Arial">AppendAsync(observation: Observation): Task</text><g data-visibility-modifier="PUBLIC_METHOD"><ellipse cx="1281.122" cy="375.872" rx="3.438" ry="3.438" fill="#84BE84" style="stroke:#038048;stroke-width:1.146;"/></g><text x="1291.434" y="379.977" fill="#000" font-size="16.042" textLength="407.488" font-family="Arial">GetPendingAsync(): Task&lt;IReadOnlyList&lt;Observation>></text><g data-visibility-modifier="PUBLIC_METHOD"><ellipse cx="1281.122" cy="394.319" rx="3.438" ry="3.438" fill="#84BE84" style="stroke:#038048;stroke-width:1.146;"/></g><text x="1291.434" y="398.424" fill="#000" font-size="16.042" textLength="518.934" font-family="Arial">MarkPublishedAsync(observationId: Guid, receipt: AppendReceipt): Task</text></g><!--class EventSink--><g class="entity" data-qualified-name="EventSink" id="ent0004" data-source-line="34"><rect x="1868.545" y="314.633" width="489.916" height="73.329" fill="#85BBF0" style="stroke:#1168BD;stroke-width:0.573;" rx="2.865" ry="2.865"/><ellipse cx="2049.006" cy="337.491" rx="12.604" ry="12.604" fill="#B4A7E5" style="stroke:#181818;stroke-width:1.146;"/><path d="M2044.913,333.211 L2044.913,330.738 L2053.369,330.738 L2053.369,333.211 L2050.544,333.211 L2050.544,342.466 L2053.369,342.466 L2053.369,344.939 L2044.913,344.939 L2044.913,342.466 L2047.738,342.466 L2047.738,333.211 Z " fill="#000"/><text x="2070.204" y="333.259" fill="#000" font-size="13.75" textLength="123.837" font-style="italic" font-family="Arial">«port of publication»</text><text x="2096.009" y="351.22" fill="#000" font-size="16.042" textLength="72.227" font-style="italic" font-family="Arial">EventSink</text><line x1="1869.691" y1="360.349" x2="2357.315" y2="360.349" style="stroke:#1168BD;stroke-width:0.573;"/><g data-visibility-modifier="PUBLIC_METHOD"><ellipse cx="1881.149" cy="375.874" rx="3.438" ry="3.438" fill="#84BE84" style="stroke:#038048;stroke-width:1.146;"/></g><text x="1891.461" y="379.979" fill="#000" font-size="16.042" textLength="460.125" font-family="Arial">AppendAsync(observation: Observation): Task&lt;AppendReceipt></text></g><!--class KafkaEventSink--><g class="entity" data-qualified-name="KafkaEventSink" id="ent0005" data-source-line="37"><rect x="1868.545" y="561.548" width="489.916" height="64.28" fill="#85BBF0" style="stroke:#1168BD;stroke-width:0.573;" rx="2.865" ry="2.865"/><ellipse cx="2052.01" cy="579.882" rx="12.604" ry="12.604" fill="#ADD1B2" style="stroke:#181818;stroke-width:1.146;"/><path d="M2054.843,586.921 Q2054.178,587.263 2053.445,587.434 Q2052.713,587.606 2051.904,587.606 Q2049.032,587.606 2047.52,585.713 Q2046.007,583.82 2046.007,580.244 Q2046.007,576.658 2047.52,574.765 Q2049.032,572.872 2051.904,572.872 Q2052.713,572.872 2053.455,573.044 Q2054.197,573.215 2054.843,573.557 L2054.843,576.677 Q2054.121,576.011 2053.44,575.702 Q2052.76,575.393 2052.038,575.393 Q2050.497,575.393 2049.712,576.615 Q2048.927,577.837 2048.927,580.244 Q2048.927,582.641 2049.712,583.863 Q2050.497,585.085 2052.038,585.085 Q2052.76,585.085 2053.44,584.776 Q2054.121,584.467 2054.843,583.801 Z " fill="#000"/><text x="2075.499" y="585.705" fill="#000" font-size="16.042" textLength="113.247" font-family="Arial">KafkaEventSink</text><line x1="1869.691" y1="598.215" x2="2357.315" y2="598.215" style="stroke:#1168BD;stroke-width:0.573;"/><g data-visibility-modifier="PUBLIC_METHOD"><ellipse cx="1881.149" cy="613.74" rx="3.438" ry="3.438" fill="#84BE84" style="stroke:#038048;stroke-width:1.146;"/></g><text x="1891.461" y="617.845" fill="#000" font-size="16.042" textLength="460.125" font-family="Arial">AppendAsync(observation: Observation): Task&lt;AppendReceipt></text></g><!--class PublicationWorker--><g class="entity" data-qualified-name="PublicationWorker" id="ent0009" data-source-line="43"><rect x="2000.545" y="50.53" width="225.934" height="73.329" fill="#85BBF0" style="stroke:#1168BD;stroke-width:0.573;" rx="2.865" ry="2.865"/><ellipse cx="2042.021" cy="73.388" rx="12.604" ry="12.604" fill="#ADD1B2" style="stroke:#181818;stroke-width:1.146;"/><path d="M2044.854,80.427 Q2044.189,80.769 2043.456,80.94 Q2042.724,81.111 2041.915,81.111 Q2039.043,81.111 2037.531,79.219 Q2036.018,77.326 2036.018,73.75 Q2036.018,70.164 2037.531,68.271 Q2039.043,66.378 2041.915,66.378 Q2042.724,66.378 2043.466,66.55 Q2044.208,66.721 2044.854,67.063 L2044.854,70.183 Q2044.131,69.517 2043.451,69.208 Q2042.771,68.899 2042.049,68.899 Q2040.508,68.899 2039.723,70.121 Q2038.938,71.343 2038.938,73.75 Q2038.938,76.146 2039.723,77.369 Q2040.508,78.591 2042.049,78.591 Q2042.771,78.591 2043.451,78.282 Q2044.131,77.973 2044.854,77.307 Z " fill="#000"/><text x="2061.168" y="69.156" fill="#000" font-size="13.75" textLength="139.877" font-style="italic" font-family="Arial">«external collaborator»</text><text x="2066.023" y="87.117" fill="#000" font-size="16.042" textLength="130.166" font-family="Arial">PublicationWorker</text><line x1="2001.691" y1="96.246" x2="2225.333" y2="96.246" style="stroke:#1168BD;stroke-width:0.573;"/><g data-visibility-modifier="PUBLIC_METHOD"><ellipse cx="2013.149" cy="111.771" rx="3.438" ry="3.438" fill="#84BE84" style="stroke:#038048;stroke-width:1.146;"/></g><text x="2023.461" y="115.876" fill="#000" font-size="16.042" textLength="196.142" font-family="Arial">FlushPendingAsync(): Task</text></g><g class="entity" data-qualified-name="GMN12" id="ent0013" data-source-line="49"><path d="M2409.917,319.881 L2409.917,382.725 L2692.511,382.725 L2692.511,331.339 L2681.052,319.881 L2409.917,319.881" style="stroke:#181818;stroke-width:0.573;" fill="#FEFFDD"/><path d="M2681.052,319.881 L2681.052,331.339 L2692.511,331.339 L2681.052,319.881" style="stroke:#181818;stroke-width:1.146;" fill="#FEFFDD"/><text x="2416.792" y="339.582" fill="#000" font-size="14.896" textLength="250.851" font-family="Arial">Сотрудничающий класс компонента</text><text x="2416.792" y="356.711" fill="#000" font-size="14.896" textLength="200.81" font-family="Arial">«Публикация фактов» из C3.</text><text x="2416.792" y="373.84" fill="#000" font-size="14.896" textLength="258.531" font-family="Arial">Наблюдение хранится до ACK Kafka.</text></g><g class="entity" data-qualified-name="GMN15" id="ent0016" data-source-line="54"><path d="M844.674,311.31 L844.674,391.283 A0,0 0 0 0 844.674,391.283 L1216.708,391.283 A0,0 0 0 0 1216.708,391.283 L1216.708,322.768 L1205.25,311.31 L1035.283,311.31 L1030.7,124.195 L1026.117,311.31 L844.674,311.31 A0,0 0 0 0 844.674,311.31" style="stroke:#181818;stroke-width:0.573;" fill="#FEFFDD"/><path d="M1205.25,311.31 L1205.25,322.768 L1216.708,322.768 L1205.25,311.31" style="stroke:#181818;stroke-width:0.573;" fill="#FEFFDD"/><text x="851.549" y="331.011" fill="#000" font-size="14.896" textLength="313.234" font-family="Arial">Нет прямой отправки терминалу или сирене.</text><text x="851.549" y="348.14" fill="#000" font-size="14.896" textLength="316.711" font-family="Arial">KafkaEventSink: acks=all, idempotent producer.</text><text x="851.549" y="365.269" fill="#000" font-size="14.896" textLength="347.972" font-family="Arial">Ошибка / неизвестный ACK: повтор с прежним ID.</text><text x="851.549" y="382.397" fill="#000" font-size="14.896" textLength="310.187" font-family="Arial">ACK означает запись, не доставку человеку.</text></g><g class="entity" data-qualified-name="GMN18" id="ent0019" data-source-line="61"><path d="M374.985,277.061 L374.985,346.716 L323.652,351.299 L374.985,355.883 L374.985,425.549 A0,0 0 0 0 374.985,425.549 L792.66,425.549 A0,0 0 0 0 792.66,425.549 L792.66,288.519 L781.202,277.061 L374.985,277.061 A0,0 0 0 0 374.985,277.061" style="stroke:#181818;stroke-width:0.573;" fill="#FEFFDD"/><path d="M781.202,277.061 L781.202,288.519 L792.66,288.519 L781.202,277.061" style="stroke:#181818;stroke-width:0.573;" fill="#FEFFDD"/><text x="381.86" y="296.762" fill="#000" font-size="14.896" textLength="320.951" font-family="Arial">Типы C#/.NET: Guid, DateTimeOffset, Task&lt;T>.</text><text x="381.86" y="313.891" fill="#000" font-size="14.896" textLength="393.612" font-family="Arial">Detection — входное обнаружение (камера, зона, время,</text><text x="381.86" y="331.02" fill="#000" font-size="14.896" textLength="285.647" font-family="Arial">серьёзность, ссылки на доказательства).</text><text x="381.86" y="348.148" fill="#000" font-size="14.896" textLength="213.618" font-family="Arial">Severity: enum {urgent, normal}.</text><text x="381.86" y="365.277" fill="#000" font-size="14.896" textLength="353.565" font-family="Arial">EvidenceRef: value object {uri: string, sha256: string}.</text><text x="381.86" y="382.406" fill="#000" font-size="14.896" textLength="293.145" font-family="Arial">AppendReceipt: value object {EventId: Guid,</text><text x="381.86" y="399.535" fill="#000" font-size="14.896" textLength="308.798" font-family="Arial">position: string, ConfirmedAt: DateTimeOffset}.</text><text x="381.86" y="416.663" fill="#000" font-size="14.896" textLength="373.094" font-family="Arial">JSON-имена полей задаются контрактом интеграций.</text></g><!--link ObservationPublisher to Observation--><g class="link" data-entity-1="ent0002" data-entity-2="ent0001" id="lnk6" data-source-line="40" data-link-type="dependency"><path d="M843.012,104.166 C702.522,120.964 507.994,154.892 348.929,222.405 C340.358,226.037 336.861,227.478 328.359,231.889" style="stroke:#555;stroke-width:1.146;" fill="none" id="ObservationPublisher-to-Observation" codeLine="40"/><polygon points="323.274,234.528,334.539,233.846,328.359,231.889,330.317,225.71,323.274,234.528" fill="#555" style="stroke:#555;stroke-width:1.146;stroke-linejoin:miter;stroke-miterlimit:10;"/><text x="511.603" y="179.085" fill="#000" font-size="14.896" textLength="138.877" font-family="Arial">создаёт ID один раз</text></g><!--link ObservationPublisher to OutboxPort--><g class="link" data-entity-1="ent0002" data-entity-2="ent0003" id="lnk7" data-source-line="41" data-link-type="dependency"><path d="M1100.836,124.195 C1187.416,168.447 1330.402,241.545 1431.098,293.016" style="stroke:#555;stroke-width:1.146;" fill="none" id="ObservationPublisher-to-OutboxPort" codeLine="41"/><polygon points="1436.199,295.623,1429.103,286.849,1431.098,293.016,1424.93,295.011,1436.199,295.623" fill="#555" style="stroke:#555;stroke-width:1.146;stroke-linejoin:miter;stroke-miterlimit:10;"/><text x="1212.131" y="179.085" fill="#000" font-size="14.896" textLength="176.393" font-family="Arial">сохраняет и будит worker</text></g><!--reverse link EventSink to KafkaEventSink--><g class="link" data-entity-1="ent0004" data-entity-2="ent0005" id="lnk8" data-source-line="42" data-link-type="extension"><path d="M2113.513,409.015 C2113.513,455.983 2113.513,516.827 2113.513,561.331" style="stroke:#555;stroke-width:1.146;stroke-dasharray:8.021,8.021;" fill="none" id="EventSink-backto-KafkaEventSink" codeLine="42"/><polygon points="2113.513,388.39,2106.638,409.015,2120.388,409.015,2113.513,388.39" fill="none" style="stroke:#555;stroke-width:1.146;stroke-linejoin:miter;stroke-miterlimit:10;"/></g><!--link PublicationWorker to OutboxPort--><g class="link" data-entity-1="ent0009" data-entity-2="ent0003" id="lnk10" data-source-line="46" data-link-type="dependency"><path d="M2000.064,118.42 C1958.951,130.715 1912.591,146.253 1871.742,163.967 C1785.208,201.482 1697.038,252.561 1632.08,292.779" style="stroke:#555;stroke-width:1.146;" fill="none" id="PublicationWorker-to-OutboxPort" codeLine="46"/><polygon points="1627.209,295.795,1638.39,294.263,1632.08,292.779,1633.565,286.47,1627.209,295.795" fill="#555" style="stroke:#555;stroke-width:1.146;stroke-linejoin:miter;stroke-miterlimit:10;"/><text x="1872.887" y="179.085" fill="#000" font-size="14.896" textLength="228.02" font-family="Arial">читает задания / фиксирует ACK</text></g><!--link PublicationWorker to EventSink--><g class="link" data-entity-1="ent0009" data-entity-2="ent0004" id="lnk11" data-source-line="47" data-link-type="dependency"><path d="M2113.513,124.195 C2113.513,174.199 2113.513,258.59 2113.513,308.583" style="stroke:#555;stroke-width:1.146;" fill="none" id="PublicationWorker-to-EventSink" codeLine="47"/><polygon points="2113.513,314.312,2118.096,303.999,2113.513,308.583,2108.929,303.999,2113.513,314.312" fill="#555" style="stroke:#555;stroke-width:1.146;stroke-linejoin:miter;stroke-miterlimit:10;"/><text x="2114.658" y="179.085" fill="#000" font-size="14.896" textLength="108.148" font-family="Arial">публикует факт</text></g><!--link PublicationWorker to GMN12--><g class="link" data-entity-1="ent0009" data-entity-2="ent0013" id="lnk14" data-source-line="49" data-link-type="association"><path d="M2196.459,124.436 C2251.139,149.427 2323.509,184.844 2383.929,222.405 C2431.561,252.024 2482.219,292.048 2515.15,319.354" style="stroke:#555;stroke-width:1.146;stroke-dasharray:8.021,8.021;" fill="none" id="PublicationWorker-GMN12"/></g><g class="legend" data-source-line="71"><rect x="2262.315" y="649.891" width="425.612" height="71.381" fill="#DDD" style="stroke:#000;stroke-width:1.146;" rx="8.594" ry="8.594"/><text x="2272.501" y="672.958" fill="#000" font-size="16.042" textLength="105.916" font-weight="700" font-family="Arial">Обозначения</text><text x="2272.501" y="691.405" fill="#000" font-size="16.042" textLength="359.692" font-family="Arial">UML: классы / состояния / участники подписаны</text><text x="2272.501" y="709.851" fill="#000" font-size="16.042" textLength="405.24" font-family="Arial">Стрелка: вызов, зависимость или переход по подписи</text><line x1="2268.044" y1="657.911" x2="2682.198" y2="657.911" style="stroke:#000;stroke-width:1.146;"/><line x1="2268.044" y1="676.358" x2="2682.198" y2="676.358" style="stroke:#000;stroke-width:1.146;"/><line x1="2268.044" y1="694.804" x2="2682.198" y2="694.804" style="stroke:#000;stroke-width:1.146;"/><line x1="2268.044" y1="713.251" x2="2682.198" y2="713.251" style="stroke:#000;stroke-width:1.146;"/><line x1="2268.044" y1="657.911" x2="2268.044" y2="713.251" style="stroke:#000;stroke-width:1.146;"/><line x1="2682.198" y1="657.911" x2="2682.198" y2="713.251" style="stroke:#000;stroke-width:1.146;"/></g><?plantuml-src fLPRJnj757xVNt6al2IgSKARf955B84JeZGN4A4NzMsy7kEjrpkhsJK92f6uD4qheg18VUXBKwMlVJ4K1n8mIFa5it-XlwJVcVMoQqmhLUK1TiwSEUTytxaHjRqW55fqg26Rekl7iog87ugEf6dj2T-9yllGeyd9AmL9r18DzTWBbgWf_4WMRbnVHD6CSDjBMdM3HatvIjE56zTcPcQlZAaftP1wg38vUVt6pAs2ohJMwl7myfhzALm6gY4Z6TBLeb2BeCt2pwyuBQyXINR2U8KwibENEd9YB_Q13N4jIhT5tz1VQpzJxMg9p2zct-oPNh9X-kOmUKbcO7fc1v-l8ExZT63UqsKokz1Pmw5d1ia6cTUE4wkGOaLr5SSAF7bQkh6d0iV2exbw9FMoO0bDJIqBloj9rR-3JhLAJntwfA1mjr6XErsl0UcY34GGio2ADJY6Q5RepeZWaTkI7V4LSE5jXRmWXh26v6anelUj2kI8OCvrkrhBndHSeLiYbejUHyurcv5a0_DQDRgkr2Cl7e1g_zHJ7e5SbjgBLogKVK5uUncy1wwiqDq5AHfpWRzotulYgKo-89jLvzauFVFTkkz5BQd1awiw8Q8ECfA6TzFHIk1URCWufHZHPv-NAhGeelOKqyVMGORKJU5Ackl6TVLaNkaOTaF-WsH5eLB-qFPq6CgWaPfMUJYLOcn3yz2-8-Dvg0D_-Y9pF8gryBHQPVw4RcVunbrbUIyHQaTw8TAI1hMG7ZFlHLYtby7E8ozePwXKaqBsu0wz_bTiKoCkympT4yssoBt1wlyqUsxA9oQg8wrIeMJT70zxyZKwxUujmdaFdJSWD63FxF-BeJpbgPtakNqoIBPDdxlsWCnEiidMS7giT5jgfq3eQhby1lQGY_cSuA_jAv0ldo0bWV39LRulwagBMEaX_RD-DsgTLowWOTpMUEWlE404ReFUnySUeu1m6wCe-HvaV02yWsGDO5XdkdRl7-pcw2faJg2EqMQVfmzXguV3XXEeM6QZ31KrPimnRq7dXlMuPqDvWGIzIdwoyz5yWDLUifwiy-UnEJ8d-3tW-Saud8z_cDzotz3ymMB9l4Dtz-CXqcFsgVPPsJ6_ZitWFcMvP6hWQPjmTyp8qvIL7T1D3ECiblFAXLrOSa-0Q1ln7ZCA06G1lEmYoWFYfO3Z4HSVX8V99iTuo3UMVHjRl-oCrao5i06ZcyBtIuJ9Xu4MuuR2uNm5l3V9Zx2pmqpmQc6U01rE-m2s0Sws40sGSSgO6sOeMIDczyHwVMSvEK9pb1rcm7OCGkIav4LpWXZNavSbwy7IPSrRT802PQmyje-_41GOJ2dKtb8hFiEWOtw7vvDaYseNBfSVtbxC9jZeFYcbCs2nMdPEHxNTkG3ptFRp0B_x7FYE3PphwjrfhYyoDU2TsU-L60rN4t_jMln7oNR9GGvmdxnCNblm5XoZvJ84WuSsXVpCGhSMz_D5Rwd0KhzKTl9j9eDkXvvszH8ILW8LkYFyPsMdiC4gL5pbhEjbUx74_nbzUkrwTiR3aHbuzgajcDCLu8GgykB2cYrHJGLDJtVEszUm_SMZkOSJN0MMjLvQAeSul3yT6UZFOQjmKmwuVKyRxeXBUM3P-9F5t9BcVR46VBd41ri5pkfDCc-GgxpG-iE1jEgiqfSFxbSAGm3LSJcTl-ksTBVpsRLfvuQjSZiA3jAuzz9YjRDwoveqRssuVPl7NeKplsNhOBUKujkr3nZ_CFDPRy8Krqq_BJHhVzJ90Hm0MOhlRm00?></g></svg>